<?xml version="1.0" encoding="UTF-8" standalone="no"?>
<svg
   height="404"
   version="1.1"
   width="391"
   id="svg42"
   sodipodi:docname="tkslist_logo_vector.svg"
   xmlns:inkscape="http://www.inkscape.org/namespaces/inkscape"
   xmlns:sodipodi="http://sodipodi.sourceforge.net/DTD/sodipodi-0.dtd"
   xmlns="http://www.w3.org/2000/svg"
   xmlns:svg="http://www.w3.org/2000/svg">
  <sodipodi:namedview
     id="namedview44"
     pagecolor="#ffffff"
     bordercolor="#000000"
     borderopacity="0.25"
     inkscape:showpageshadow="2"
     inkscape:pageopacity="0.0"
     inkscape:pagecheckerboard="0"
     inkscape:deskcolor="#d1d1d1"
     showgrid="false" />
  <defs
     id="defs2" />
  <path
     d="m 356,163 v 2 l 2,2 h 1 l 2,2 h 1 l 3,3 v 1 l 1,1 h 1 l 1,1 1,-1 v -1 l -7,-7 h -1 l -2,-2 h -1 l -1,-1 z"
     fill="#000000"
     stroke="none"
     id="path18" />
  <path
     d="m 346,149 v 3 h 1 l 1,1 h 3 v -1 l -3,-3 z"
     fill="#000000"
     stroke="none"
     id="path20" />
  <path
     d="m 342,142 -1,1 v 2 l 1,1 h 1 l 1,1 h 1 v -3 l -2,-2 z"
     fill="#000000"
     stroke="none"
     id="path22" />
  <path
     d="m 322,126 -1,1 v 4 l 3,3 v 1 h 3 l 1,1 h 1 l 1,-1 v -1 l -1,-1 v -4 h -3 l -3,-3 z"
     fill="#000000"
     stroke="none"
     id="path24" />
  <path
     d="m 319,121 -1,1 1,1 h 2 v -1 l -1,-1 z"
     fill="#000000"
     stroke="none"
     id="path26" />
  <path
     d="m 218,111 -1,1 v 9 l 1,1 v 2 l 1,1 v 2 l -1,1 h -1 l -1,1 h -6 l -1,1 h -2 l -1,1 h -4 l -1,1 h -1 l -1,1 h -5 l -2,2 h -6 l -1,1 h -1 l -1,1 h -5 l -1,1 h -1 l -1,1 h -4 l -2,2 h -3 l -2,2 h -4 l -2,2 h -4 l -2,2 h -2 l -1,1 h -1 l -1,1 h -5 l -2,2 h -2 l -2,2 h -4 l -2,2 h -1 l -2,2 h -2 l -2,2 h -5 l -2,2 h -3 l -2,2 h -1 l -3,3 v 2 l 4,4 v 1 l 9,9 h 16 l 2,-2 v -3 l 3,-3 h 1 l 2,-2 h 4 l 4,-4 h 5 l 2,-2 h 1 l 2,-2 h 2 l 1,-1 h 1 l 1,-1 h 3 l 2,-2 h 3 l 2,-2 h 3 l 1,-1 h 1 l 1,-1 h 4 l 1,-1 h 1 l 1,-1 h 3 l 2,-2 h 4 l 2,-2 h 3 l 1,-1 h 1 l 1,-1 h 3 l 2,-2 h 5 l 2,-2 2,2 v 12 l -1,1 v 4 l 1,1 v 4 l -1,1 v 2 l 1,1 v 1 l -1,1 v 1 l 1,1 v 29 l -1,1 v 4 l 1,1 v 2 l -1,1 v 1 l 1,1 v 5 l -1,1 v 1 l 1,1 v 42 l 1,1 v 1 l 1,1 v 4 l 2,2 v 3 l 1,1 v 1 l 1,1 v 1 l 2,2 v 1 l 5,5 h 2 l 1,1 h 1 l 1,1 h 4 l 1,-1 h 1 l 1,-1 h 3 l 3,-3 v -29 l 1,-1 v -3 l 1,-1 v -3 l 1,-1 v -1 l 1,-1 v -13 l -1,-1 h -3 l -1,1 v 2 l -1,1 v 2 l -1,1 v 4 l -1,1 v 1 l -1,1 v 5 l -1,1 v 1 l -1,1 v 2 l -2,2 v 4 l -2,2 v 1 l -1,1 h -1 l -2,-2 v -1 l -1,-1 v -7 l -2,-2 1,-1 v -9 l -1,-1 2,-2 v -22 l 1,-1 v -4 l -1,-1 v -3 l 2,-2 v -2 l -1,-1 v -5 l 1,-1 v -1 l -2,-2 v -16 l -1,-1 v -5 l 1,-1 v -1 l 1,-1 v -3 l 1,-1 v -3 l -2,-2 v -2 l -1,-1 1,-1 v -8 l 1,-1 v -1 l 1,-1 v -1 l -1,-1 1,-1 v -1 l 7,-7 h 1 l 2,-2 v -1 l 2,-2 v -1 l 2,-2 v -1 l 1,-1 h 6 l 2,-2 h 5 l 1,-1 h 1 l 1,-1 h 7 l 1,-1 h 1 l 1,-1 h 7 l 1,-1 h 1 v -1 l 1,-1 v -1 h -1 l -1,-1 h -6 l -1,1 h -1 l -1,1 h -8 l -1,1 h -2 l -1,1 h -12 l -1,1 h -1 l -1,1 h -13 l -2,-2 h -5 l -1,-1 v -1 h -1 l -2,-2 h -1 l -2,-2 h -1 l -2,-2 z"
     fill="#000000"
     stroke="none"
     id="path28" />
  <path
     d="m 304,107 v 2 l 2,2 v 4 l 2,2 h 3 v -1 l -1,-1 v -1 l -1,-1 1,-1 h 1 v -1 l 1,-1 -1,-1 v -1 h -1 l -1,-1 z"
     fill="#000000"
     stroke="none"
     id="path30" />
  <path
     d="m 296,99 v 1 l -1,1 v 2 l 3,3 h 1 l 1,-1 h 1 l 1,-1 -1,-1 v -1 l -1,-1 h -1 l -2,-2 z"
     fill="#000000"
     stroke="none"
     id="path32" />
  <path
     d="m 290,99 v 2 h 2 v -1 l -1,-1 z"
     fill="#000000"
     stroke="none"
     id="path34" />
  <path
     d="m 276,85 v 2 l 1,1 v 1 l 3,3 h 1 l 5,5 h 2 l 2,-2 h 1 l 1,1 h 1 v -2 l -2,-2 v -1 h -1 l -3,-3 h -4 l -1,-1 h -1 l -2,-2 z"
     fill="#000000"
     stroke="none"
     id="path36" />
  <path
     d="m 280,82 v 1 h 1 v -1 z"
     fill="#000000"
     stroke="none"
     id="path38" />
  <path
     d="m 195,0 -13,13 h -1 l -6,6 v 1 l -1,1 h -1 v 1 l -4,4 v 1 l -6,6 v 1 l -2,2 v 1 l -2,2 v 1 l -1,1 h -1 l -8,8 h -1 l -2,2 h -1 v 1 l -8,8 v 1 l -8,8 h -1 l -4,4 h -2 l -1,1 v 1 l -1,1 v 2 l -1,1 v 1 l -1,1 h -1 v 1 l -1,1 h -1 l -4,4 v 1 l -4,4 v 1 l -6,6 h -1 l -2,2 v 1 l -1,1 v 1 l -1,1 h -2 l -5,5 v 1 l -2,2 v 1 l -1,1 h -1 l -2,2 v 1 l -1,1 h -1 l -6,6 h -1 l -28,28 h -1 l -4,4 h -1 l -8,8 h -1 l -1,1 v 1 l -1,1 v 2 l -1,1 v 1 l -3,3 v 1 l -1,1 h -1 l -2,2 h -1 l -7,7 v 1 l -4,4 v 1 l -1,1 H 7 l -5,5 v 1 l -1,1 v 1 l -1,1 v 1 l 1,1 v 1 l 8,8 v 1 h 1 l 1,1 v 1 h 1 l 1,1 v 1 l 2,2 h 2 l 4,4 v 1 l 2,2 v 1 l 1,1 h 1 l 2,2 v 1 l 2,2 v 2 l 1,1 v 1 l 1,1 v 1 l 2,2 h 1 l 2,2 v 1 l 3,3 h 1 l 6,6 h 1 l 3,3 h 1 l 5,5 v 1 l 9,9 h 1 l 4,4 h 1 l 4,4 v 1 l 9,9 h 1 l 2,2 v 1 l 2,2 v 1 l 2,2 h 1 l 1,1 v 1 h 1 l 1,1 v 1 l 5,5 h 1 l 6,6 v 1 h 1 l 1,1 v 1 h 1 l 1,1 v 1 h 1 l 4,4 h 1 l 2,2 v 1 l 4,4 v 1 h 1 l 1,1 v 1 l 16,16 v 1 l 13,13 h 2 l 2,2 h 1 l 1,1 h 1 l 1,-1 1,1 v 1 l 1,1 v 2 l 5,5 v 1 l 12,12 v 1 h 1 l 1,1 v 1 h 1 l 1,1 v 1 l 12,12 h 2 l 15,-15 v -1 l 4,-4 h 1 l 1,-1 v -1 l 1,-1 h 1 l 4,-4 v -1 l 4,-4 h 1 l 2,-2 h 1 v -1 l 3,-3 v -1 l 1,-1 v -1 l 3,-3 h 1 v -1 l 1,-1 h 1 l 18,-18 v -1 l 6,-6 v -1 l 2,-2 v -1 l 1,-1 h 2 l 2,-2 h 1 l 4,-4 h 1 l 1,-1 v -1 l 6,-6 v -1 l 1,-1 h 2 l 1,-1 v -1 l 10,-10 h 1 l 11,-11 v -2 l 1,-1 h 1 l 2,-2 h 1 l 3,-3 v -1 l 1,-1 v -1 l 4,-4 h 1 v -1 l 1,-1 h 1 l 14,-14 v -1 l 1,-1 h 1 v -1 l 1,-1 h 1 v -1 l 1,-1 h 1 v -1 l 1,-1 h 1 v -1 l 7,-7 h 1 v -1 l 1,-1 h 1 v -1 l 1,-1 h 1 l 6,-6 h 1 l 5,-5 v -2 l 5,-5 h 1 l 4,-4 v -1 l 1,-1 h 1 v -1 l 1,-1 h 1 v -2 l 1,-1 -1,-1 h -4 l -1,1 h -3 l -1,1 h -1 l -1,1 v 1 l -1,1 h -1 l -2,2 h -1 l -26,26 h -1 l -10,10 v 1 l -1,1 h -1 l -1,1 v 1 l -10,10 h -1 l -2,2 h -1 l -1,1 v 1 l -2,2 v 1 l -1,1 h -2 l -1,1 h -1 l -1,1 v 1 l -1,1 h -1 v 1 l -8,8 v 1 l -18,18 v 1 l -2,2 v 1 l -4,4 h -1 l -7,7 v 1 l -4,4 h -2 l -4,4 v 1 l -2,2 v 2 l -1,1 h -1 l -1,1 v 1 l -4,4 h -3 v 1 l -1,1 h -1 l -2,2 v 1 l -4,4 v 1 l -1,1 h -1 l -1,1 h -1 l -1,1 v 1 l 1,1 -3,3 h -1 l -2,2 h -1 l -2,2 h -1 l -4,4 v 1 l -1,1 h -1 l -2,2 v 1 l -1,1 h -1 l -5,5 v 1 l -3,3 h -1 l -3,3 v 1 l -1,1 h -1 l -2,2 h -1 l -1,1 -1,-1 v -2 l -8,-8 v -1 l -1,-1 h -1 l -2,-2 h -1 l -2,-2 h -1 l -2,-2 v -1 l -3,-3 h -2 l -1,-1 v -1 l -1,-1 v -1 l -8,-8 h -1 l -1,-1 v -2 l -1,-1 v -1 h -1 l -1,-1 v -1 l -1,-1 h -1 l -2,-2 h -1 l -7,-7 v -2 l -1,-1 h -1 l -2,-2 v -1 l -1,-1 v -1 l -3,-3 h -1 l -9,-9 h -1 l -5,-5 v -1 l -10,-10 v -1 l -1,-1 h -3 l -2,-2 1,-1 v -2 l -1,-1 h -2 l -1,-1 h -1 l -3,-3 1,-1 v -1 l -1,-1 h -1 l -9,-9 h -1 l -7,-7 H 79 L 60,252 v -1 l -2,-2 v -1 l -1,-1 h -1 l -2,-2 v -2 l -2,-2 v -1 l -3,-3 h -4 l -1,-1 v -1 l -1,-1 v -1 l -5,-5 h -1 l -3,-3 v -2 l -2,-2 h -2 l -8,-8 h -1 l -5,-5 v -1 h -1 l -2,-2 h -1 l -2,-2 5,-5 h 1 v -1 l 4,-4 v -1 l 1,-1 v -1 l 5,-5 v -2 l 1,-1 h 2 l 1,-1 h 1 l 3,-3 h 1 l 7,-7 v -1 l 2,-2 v -1 l 3,-3 h 2 l 2,-2 v -1 l 4,-4 h 1 l 2,-2 v -1 l 2,-2 v -1 l 3,-3 h 1 v -1 l 1,-1 h 1 v -1 l 9,-9 h 1 l 10,-10 v -1 l 6,-6 h 1 l 1,-1 v -1 l 1,-1 1,1 2,-2 v -1 l 2,-2 h 1 l 3,-3 v -2 l 3,-3 h 1 l 2,-2 v -2 l 1,-1 h 2 l 1,-1 v -1 l 3,-3 h 2 l 5,-5 v -1 l 2,-2 v -1 l 2,-2 h 1 l 1,1 h 1 l 2,-2 v -1 l 1,-1 -1,-1 3,-3 v -1 l 1,-1 v -1 l 2,-2 1,1 h 2 l 2,-2 h 1 l 6,-6 v -1 l 2,-2 v -1 l 1,-1 v -2 l 1,-1 h 2 v -1 l 3,-3 h 1 l 3,-3 v -1 l 4,-4 h 1 l 3,-3 v -1 l -1,-1 h -2 l -1,-1 v -2 l 2,-2 h 1 l 1,1 h 1 v -3 l 1,-1 2,2 h 2 l 1,-1 h 1 l 2,-2 v -1 l 2,-2 v -1 l 6,-6 v -3 l 2,-2 v -1 l 1,-1 h 1 l 3,-3 h 1 l 9,9 v 1 l 1,1 v 1 l 2,2 v 1 h 1 l 5,5 h 1 l 1,1 v 2 l 2,2 h 1 l 1,-1 -1,-1 v -2 l 1,-1 3,3 v 1 l 4,4 h 1 l 1,1 -3,3 1,1 h 3 l 1,1 v 1 l 4,4 h 1 l 1,1 v 1 l 12,12 h 4 l 2,2 v 1 h 1 l 1,1 h 1 l 3,3 v 2 l 4,4 h 2 l 1,1 -1,1 v 1 l 1,1 h 1 l 1,1 h 5 v -3 l -7,-7 h -1 l -1,-1 v -1 l -2,-2 v -1 l -5,-5 h -3 l -5,-5 1,-1 v -1 l -1,-1 h -3 l -1,-1 v -1 l -1,-1 V 48 L 237,37 h -1 L 224,25 h -1 l -1,-1 v -1 h -1 l -1,-1 v -1 l -7,-7 v -1 l -2,-2 h -1 L 202,3 V 2 l -2,-2 z"
     fill="#000000"
     stroke="none"
     id="path40" />
</svg>
